<svg width="1200" height="750" viewBox="0 0 1200 750" fill="none" xmlns="http://www.w3.org/2000/svg">
  <rect width="1200" height="750" rx="36" fill="#F4E7D6"/>
  <circle cx="982" cy="138" r="96" fill="#E9BE8A"/>
  <rect x="134" y="164" width="932" height="434" rx="28" fill="#FFF8EF"/>
  <rect x="230" y="236" width="426" height="248" rx="18" fill="#D86F45"/>
  <rect x="262" y="268" width="362" height="184" rx="10" fill="#F8E8D5"/>
  <rect x="724" y="234" width="228" height="286" rx="16" fill="#F1D9B8"/>
  <rect x="754" y="274" width="168" height="18" rx="9" fill="#B85C38"/>
  <rect x="754" y="316" width="132" height="18" rx="9" fill="#C68A57"/>
  <rect x="754" y="358" width="168" height="18" rx="9" fill="#C68A57"/>
  <rect x="754" y="400" width="98" height="18" rx="9" fill="#C68A57"/>
  <rect x="336" y="526" width="180" height="26" rx="13" fill="#3B2A1B" fill-opacity="0.12"/>
  <path d="M844 552C844 511.131 877.131 478 918 478H934C974.869 478 1008 511.131 1008 552V564C1008 593.823 983.823 618 954 618H898C868.177 618 844 593.823 844 564V552Z" fill="#B85C38"/>
  <rect x="875" y="454" width="94" height="44" rx="22" fill="#FFF8EF"/>
  <path d="M314 167H572V122C572 103.222 556.778 88 538 88H348C329.222 88 314 103.222 314 122V167Z" fill="#3B2A1B"/>
  <circle cx="396" cy="127" r="16" fill="#F4E7D6"/>
  <circle cx="490" cy="127" r="16" fill="#F4E7D6"/>
</svg>
